@startuml

skinparam classAttributeIconSize 0

class GetContainersOffLoadedController{
    +getListOffloadedContainers(containerID, shipmentID)
}

class ShipTripStoreDB {
    +getNextPortID(databaseConnection, mmsi)
    +getListOffloadedContainers(databaseConnection, mmsi)
}

class Company {
    -designation
    +getShipTripStoreDB()
}

GetContainersOffLoadedController ..> Company
GetContainersOffLoadedController ..> ShipTripStoreDB
Company "1" -- "1" ShipTripStoreDB : uses >

@enduml