@startuml
'https://plantuml.com/class-diagram
hide empty methods
hide empty attributes
skinparam classAttributeIconSize 0

class PortManager{
}

class Company{}

class Port {
    -identification
    -name
}

class Warehouse {
    -identification
    -name
}

class Ship {
    -mmsi
    -imo
    -callSign
    -shipName
    -vesselType
    -length
    -width
    -draft
    -cargo
}

class Truck {
    -truckID
    -truckName
}

class CargoManifest{
    -cargoManifestId
}

class ShipTrip{
    -shipMmsi
    -departure_location_id
    -arrival_location_id
    -loading_cargo_id
    -unloading_cargo_id
    -est_departure_date
    -est_arrival_date
    -real_departure_date
    -real_arrival_date
}

class TruckTrip{
    -portID
    -departure_location_id
    -arrival_location_id
    -loading_cargo_id
    -unloading_cargo_id
    -est_departure_date
    -est_arrival_date
    -real_departure_date
    -real_arrival_date
}

class Container{
    -containerId
    -payload
    -tare
    -gross
    -isoCode
}

PortManager "1" -- "1..*" Port : analyses >
Company "1" -- "1..*" Ship : owns >
Company "1" -- "1..*" Truck : owns >
Ship "1" -- "1..*" ShipTrip : owns >
Truck "1" -- "1..*" TruckTrip : owns >
CargoManifest "1..*" -- "1..*" Container : contains >
ShipTrip "1" -- "1..2" CargoManifest : contains >
TruckTrip "1" -- "1..2" CargoManifest : contains >
ShipTrip "1..*" -- "2" Port : travels >
TruckTrip "1..*" -- "0..1" Port : travels >
TruckTrip "1..*" -- "1..2" Warehouse : travels >
@enduml