@startuml

skinparam classAttributeIconSize 0

class GetContainersLoadedController{
    +getListLoadedContainers(containerID, shipmentID)
}

class ShipTripStoreDB {
    +getNextPortID(databaseConnection, mmsi)
    +getListLoadedContainers(databaseConnection, mmsi)
}

class Company {
    -designation
    +getShipTripStoreDB()
}

GetContainersLoadedController ..> Company
GetContainersLoadedController ..> ShipTripStoreDB
Company "1" -- "1" ShipTripStoreDB : uses >

@enduml