@startuml
'https://plantuml.com/class-diagram

class Vessel{
    MMSI
    IMO
    CallSignId
    ShipName
    CurrentCapacity
    Draft
    }
class VesselType{
    VesselTypeDesignation
    Length
    Width
    maxCapacity
}
class EnergyPower{
    NumEnergyGenerators
    GeneratorsPower
}
class VesselPosition{
    BaseDateTime
    Latitude
    Longitude
    Sog
    Cog
    Heading
    Position
    Transceiver
}
class TrafficManager{}

Vessel "1" -- "*" VesselPosition : Sends >
Vessel "1" -- "1" EnergyPower : has >
Vessel "1" -- "1" VesselType : is of >
TrafficManager "1" -- "*" VesselPosition : controls >



@enduml