@startuml
skinparam classAttributeIconSize 0

class FindAvailableShipsController{
    +getNextMondayAvailableShips()
}

class Company {
    +getShipTripStoreDB()
}

class ShipTripStoreDB {
    +getNextMondayAvailableShips()
}

FindAvailableShipsController ..> Company
FindAvailableShipsController ..> ShipTripStoreDB
Company "1" -- "1" ShipTripStoreDB : uses >

@enduml